<svg width="40" height="25" viewBox="0 0 40 25" fill="none" xmlns="http://www.w3.org/2000/svg">
<g clip-path="url(#clip0_46104_313)">
<path d="M0 0H40V8.33333H0V0Z" fill="#FF9933"/>
<path d="M0 8.33333H40V16.6667H0V8.33333Z" fill="white"/>
<path d="M0 16.6667H40V25H0V16.6667Z" fill="#128807"/>
<path d="M20 15.8333C22.2091 15.8333 24 14.341 24 12.5C24 10.6591 22.2091 9.16667 20 9.16667C17.7909 9.16667 16 10.6591 16 12.5C16 14.341 17.7909 15.8333 20 15.8333Z" fill="#000088"/>
<path d="M20 15.4167C21.933 15.4167 23.5 14.1108 23.5 12.5C23.5 10.8892 21.933 9.58333 20 9.58333C18.067 9.58333 16.5 10.8892 16.5 12.5C16.5 14.1108 18.067 15.4167 20 15.4167Z" fill="white"/>
<path d="M20 13.0833C20.3866 13.0833 20.7 12.8222 20.7 12.5C20.7 12.1778 20.3866 11.9167 20 11.9167C19.6134 11.9167 19.3 12.1778 19.3 12.5C19.3 12.8222 19.6134 13.0833 20 13.0833Z" fill="#000088"/>
<path d="M23.4465 13.0305C23.5451 13.0413 23.6355 12.9835 23.6485 12.9014C23.6615 12.8192 23.5921 12.7439 23.4935 12.7331C23.395 12.7223 23.3045 12.7801 23.2916 12.8622C23.2786 12.9443 23.348 13.0197 23.4465 13.0305Z" fill="#000088"/>
<path d="M20 15.4167L20.12 13.6667L20 12.8333L19.88 13.6667L20 15.4167Z" fill="#000088"/>
<path d="M23.1466 13.748C23.2287 13.784 23.334 13.7546 23.3818 13.6824C23.4296 13.6101 23.4019 13.5224 23.3198 13.4864C23.2378 13.4504 23.1325 13.4798 23.0847 13.552C23.0368 13.6242 23.0646 13.712 23.1466 13.748Z" fill="#000088"/>
<path d="M19.0705 15.3158L19.7383 13.6547L19.9201 12.8234L19.5537 13.6001L19.0705 15.3158Z" fill="#000088"/>
<path d="M22.6565 14.3967C22.7298 14.4464 22.8428 14.433 22.9089 14.3666C22.9749 14.3002 22.969 14.206 22.8956 14.1562C22.8223 14.1065 22.7093 14.12 22.6432 14.1864C22.5772 14.2528 22.5831 14.3469 22.6565 14.3967Z" fill="#000088"/>
<path d="M18.2397 15.0301L19.3973 13.5547L19.8102 12.7845L19.2099 13.4631L18.2397 15.0301Z" fill="#000088"/>
<path d="M21.9763 14.9053C22.0309 14.9714 22.1439 14.9844 22.2286 14.9343C22.3134 14.8843 22.3378 14.7901 22.2831 14.724C22.2285 14.6579 22.1155 14.6449 22.0308 14.695C21.946 14.7451 21.9216 14.8392 21.9763 14.9053Z" fill="#000088"/>
<path d="M17.5131 14.5618L19.0871 13.3965L19.7291 12.7363L18.9414 13.2538L17.5131 14.5618Z" fill="#000088"/>
<path d="M21.1794 15.2489C21.2215 15.3274 21.3268 15.3671 21.4146 15.3374C21.5024 15.3078 21.5394 15.22 21.4973 15.1414C21.4553 15.0629 21.35 15.0232 21.2622 15.0529C21.1744 15.0825 21.1373 15.1703 21.1794 15.2489Z" fill="#000088"/>
<path d="M16.9755 13.951L18.8519 13.1799L19.6473 12.674L18.719 12.992L16.9755 13.951Z" fill="#000088"/>
<path d="M20.28 15.4034C20.2945 15.49 20.3849 15.5551 20.482 15.5488C20.579 15.5424 20.6459 15.4671 20.6314 15.3805C20.6169 15.2938 20.5264 15.2288 20.4294 15.2351C20.3324 15.2414 20.2655 15.3168 20.28 15.4034Z" fill="#000088"/>
<path d="M16.6183 13.2221L18.6782 12.943L19.6148 12.6191L18.6182 12.6842L16.6183 13.2221Z" fill="#000088"/>
<path d="M19.3402 15.382C19.3404 15.4696 19.4308 15.545 19.5422 15.5503C19.6535 15.5556 19.7437 15.4889 19.7435 15.4013C19.7433 15.3137 19.6529 15.2383 19.5415 15.233C19.4302 15.2277 19.34 15.2944 19.3402 15.382Z" fill="#000088"/>
<path d="M16.501 12.4483L18.5989 12.5666L19.5992 12.5517L18.6007 12.4701L16.501 12.4483Z" fill="#000088"/>
<path d="M18.4705 15.1506C18.445 15.2346 18.5089 15.3224 18.6133 15.3465C18.7177 15.3707 18.823 15.3221 18.8485 15.2381C18.874 15.154 18.81 15.0663 18.7056 15.0421C18.6013 15.0179 18.496 15.0665 18.4705 15.1506Z" fill="#000088"/>
<path d="M16.593 11.8309L18.6619 12.35L19.6402 12.328L18.6526 11.9852L16.593 11.8309Z" fill="#000088"/>
<path d="M17.7353 14.7229C17.6694 14.7892 17.6755 14.8833 17.749 14.9333C17.8224 14.9832 17.9354 14.97 18.0014 14.9038C18.0673 14.8376 18.0612 14.7434 17.9877 14.6935C17.9143 14.6435 17.8013 14.6567 17.7353 14.7229Z" fill="#000088"/>
<path d="M16.9754 11.049L18.7189 12.008L19.6472 12.3261L18.8517 11.8202L16.9754 11.049Z" fill="#000088"/>
<path d="M17.1257 14.1544C17.0398 14.2041 17.0134 14.2983 17.0668 14.3647C17.1203 14.4312 17.2333 14.4448 17.3192 14.3951C17.4052 14.3454 17.4315 14.2513 17.3781 14.1848C17.3247 14.1183 17.2117 14.1047 17.1257 14.1544Z" fill="#000088"/>
<path d="M17.5387 10.438L18.907 11.746L19.7038 12.2639L19.1037 11.6038L17.5387 10.438Z" fill="#000088"/>
<path d="M16.7128 13.4709C16.6122 13.4995 16.5543 13.5872 16.5836 13.6669C16.6128 13.7466 16.7181 13.788 16.8188 13.7595C16.9194 13.7309 16.9773 13.6432 16.948 13.5635C16.9188 13.4838 16.8135 13.4424 16.7128 13.4709Z" fill="#000088"/>
<path d="M18.2746 9.96919L19.1627 11.5365L19.7754 12.2162L19.4198 11.4463L18.2746 9.96919Z" fill="#000088"/>
<path d="M16.5294 12.7216C16.418 12.7273 16.3279 12.8026 16.3281 12.8899C16.3283 12.9772 16.4187 13.0433 16.5301 13.0377C16.6414 13.032 16.7315 12.9567 16.7313 12.8694C16.7311 12.7821 16.6407 12.7159 16.5294 12.7216Z" fill="#000088"/>
<path d="M19.1616 9.67475L19.4305 11.3938L19.8292 12.186L19.7971 11.358L19.1616 9.67475Z" fill="#000088"/>
<path d="M16.5635 11.9678C16.4704 11.9579 16.3799 12.0172 16.3615 12.1002C16.3431 12.1833 16.4037 12.2586 16.4968 12.2685C16.5899 12.2784 16.6803 12.2192 16.6988 12.1361C16.7172 12.0531 16.6566 11.9778 16.5635 11.9678Z" fill="#000088"/>
<path d="M19.9859 9.59682L19.8994 11.315L20.0144 12.1532L20.1109 11.342L19.9859 9.59682Z" fill="#000088"/>
<path d="M16.8473 11.2447C16.7618 11.2127 16.6565 11.2486 16.6121 11.3249C16.5677 11.4011 16.601 11.4889 16.6865 11.5208C16.772 11.5528 16.8773 11.517 16.9217 11.4407C16.9661 11.3645 16.9328 11.2767 16.8473 11.2447Z" fill="#000088"/>
<path d="M20.9188 9.67772L20.2548 11.3539L20.0909 12.183L20.4611 11.3957L20.9188 9.67772Z" fill="#000088"/>
<path d="M17.3467 10.6057C17.2751 10.5546 17.1621 10.566 17.0944 10.6311C17.0266 10.6961 17.0297 10.7903 17.1014 10.8414C17.173 10.8924 17.286 10.8811 17.3538 10.816C17.4215 10.7509 17.4184 10.6567 17.3467 10.6057Z" fill="#000088"/>
<path d="M21.7661 9.97329L20.6065 11.4407L20.1842 12.2121L20.7824 11.5391L21.7661 9.97329Z" fill="#000088"/>
<path d="M18.029 10.0976C17.9773 10.0299 17.8643 10.0143 17.7766 10.0627C17.689 10.1111 17.6599 10.2053 17.7116 10.273C17.7634 10.3407 17.8764 10.3564 17.964 10.3079C18.0517 10.2595 18.0808 10.1653 18.029 10.0976Z" fill="#000088"/>
<path d="M22.4936 10.4428L20.9172 11.5973L20.2642 12.2591L21.0495 11.7491L22.4936 10.4428Z" fill="#000088"/>
<path d="M18.8208 9.75113C18.7788 9.67255 18.6735 9.6329 18.5857 9.66256C18.4979 9.69223 18.4608 9.77997 18.5029 9.85855C18.545 9.93713 18.6503 9.97678 18.7381 9.94711C18.8259 9.91745 18.8629 9.82971 18.8208 9.75113Z" fill="#000088"/>
<path d="M23.0247 11.049L21.1484 11.8201L20.353 12.326L21.2813 12.008L23.0247 11.049Z" fill="#000088"/>
<path d="M19.7204 9.5968C19.7061 9.51007 19.6156 9.4448 19.5185 9.45101C19.4213 9.45723 19.3542 9.53258 19.3686 9.61931C19.383 9.70604 19.4734 9.77131 19.5706 9.7651C19.6677 9.75888 19.7348 9.68353 19.7204 9.5968Z" fill="#000088"/>
<path d="M23.382 11.7785L21.3221 12.0563L20.3851 12.3804L21.3817 12.3162L23.382 11.7785Z" fill="#000088"/>
<path d="M20.6587 9.62129C20.6596 9.53551 20.5705 9.46016 20.4599 9.453C20.3492 9.44584 20.2588 9.50957 20.2579 9.59536C20.2571 9.68114 20.3461 9.75649 20.4567 9.76365C20.5674 9.77082 20.6578 9.70708 20.6587 9.62129Z" fill="#000088"/>
<path d="M23.4967 12.5329L21.4048 12.4212L20.4035 12.4671L21.398 12.5554L23.4967 12.5329Z" fill="#000088"/>
<path d="M21.5309 9.85055C21.5557 9.76709 21.4906 9.67935 21.3856 9.65457C21.2805 9.62978 21.1752 9.67735 21.1504 9.7608C21.1256 9.84426 21.1907 9.932 21.2957 9.95679C21.4008 9.98157 21.5061 9.93401 21.5309 9.85055Z" fill="#000088"/>
<path d="M23.3963 13.1581L21.3313 12.6429L20.3709 12.683L21.3624 13.0297L23.3963 13.1581Z" fill="#000088"/>
<path d="M22.2841 10.2734C22.3394 10.2051 22.3159 10.1109 22.2318 10.063C22.1477 10.0151 22.0347 10.0317 21.9794 10.0999C21.9242 10.1682 21.9476 10.2623 22.0318 10.3102C22.1159 10.3581 22.2289 10.3416 22.2841 10.2734Z" fill="#000088"/>
<path d="M23.0426 13.9486L21.2568 12.9905L20.3349 12.6764L21.1598 13.1831L23.0426 13.9486Z" fill="#000088"/>
<path d="M22.8961 10.8404C22.97 10.7878 22.9768 10.6937 22.9113 10.6301C22.8458 10.5665 22.7328 10.5576 22.6589 10.6101C22.585 10.6627 22.5782 10.7569 22.6437 10.8204C22.7092 10.884 22.8222 10.893 22.8961 10.8404Z" fill="#000088"/>
<path d="M22.4867 14.5567L21.0587 13.2506L20.271 12.7414L20.9128 13.4033L22.4867 14.5567Z" fill="#000088"/>
<path d="M23.3119 11.5206C23.3989 11.4874 23.4346 11.3997 23.3917 11.3246C23.3488 11.2496 23.2435 11.2158 23.1565 11.249C23.0695 11.2822 23.0338 11.37 23.0767 11.445C23.1196 11.52 23.2249 11.5539 23.3119 11.5206Z" fill="#000088"/>
<path d="M21.7635 15.0229L20.7858 13.4584L20.1867 12.7917L20.6049 13.5644L21.7635 15.0229Z" fill="#000088"/>
<path d="M23.5024 12.2664C23.5963 12.2542 23.658 12.1788 23.6403 12.0981C23.6226 12.0175 23.5322 11.962 23.4384 11.9743C23.3445 11.9866 23.2828 12.0619 23.3005 12.1426C23.3181 12.2233 23.4086 12.2787 23.5024 12.2664Z" fill="#000088"/>
<path d="M20.9227 15.3155L20.4555 13.5999L20.0868 12.8238L20.2573 13.6552L20.9227 15.3155Z" fill="#000088"/>
</g>
<defs>
<clipPath id="clip0_46104_313">
<rect width="40" height="25" fill="white"/>
</clipPath>
</defs>
</svg>
