<svg preserveAspectRatio="none" width="100%" height="100%" overflow="visible" style="display: block;" viewBox="0 0 19 19" fill="none" xmlns="http://www.w3.org/2000/svg">
<g id="fluent:call-32-regular">
<path id="Vector" d="M4.40978 6.24387C4.18356 4.75119 5.23687 3.40812 6.84594 2.91531C7.13163 2.82787 7.43993 2.85272 7.70793 2.98479C7.97593 3.11686 8.18345 3.3462 8.28816 3.62603L8.80412 5.00353C8.88708 5.22511 8.90195 5.46642 8.84684 5.69652C8.79172 5.92661 8.66913 6.13499 8.49478 6.29494L6.95994 7.70272C6.8841 7.77216 6.82759 7.8601 6.79595 7.95793C6.76431 8.05577 6.75862 8.16015 6.77944 8.26084L6.79309 8.32259L6.83109 8.47756C6.86494 8.60819 6.916 8.79225 6.98784 9.01194C7.13034 9.44834 7.35775 10.035 7.69619 10.621C8.03462 11.207 8.42887 11.6975 8.73525 12.0389C8.89495 12.2165 9.06173 12.3876 9.23519 12.5519L9.28269 12.5958C9.35946 12.6638 9.45253 12.7107 9.55284 12.7321C9.65315 12.7534 9.75727 12.7484 9.85506 12.7175L11.8418 12.0923C12.0675 12.0214 12.3092 12.0195 12.5361 12.0868C12.7629 12.1542 12.9644 12.2878 13.1147 12.4705L14.0547 13.6117C14.4465 14.0867 14.4002 14.785 13.9496 15.2047C12.7181 16.3525 11.0247 16.5882 9.84675 15.6406C8.40318 14.4756 7.18596 13.0554 6.25575 11.4505C5.3187 9.84615 4.69245 8.08017 4.40978 6.24387ZM8.02334 8.33862L9.29753 7.17013C9.64623 6.85023 9.89141 6.43347 10.0016 5.97328C10.1119 5.5131 10.0821 5.03048 9.91622 4.58731L9.39966 3.20981C9.18892 2.64701 8.77147 2.18577 8.23242 1.92011C7.69337 1.65444 7.07329 1.60436 6.49859 1.78006C4.50062 2.39222 2.89631 4.18356 3.23594 6.42141C3.54081 8.40566 4.21702 10.3147 5.22916 12.0484C6.23247 13.7791 7.54528 15.3106 9.10219 16.5668C10.8686 17.9859 13.2282 17.502 14.7594 16.074C15.1978 15.6658 15.4639 15.1056 15.5033 14.5079C15.5427 13.9101 15.3524 13.3199 14.9714 12.8577L14.0315 11.7165C13.7307 11.351 13.3276 11.0837 12.8739 10.9489C12.4201 10.8141 11.9364 10.818 11.4849 10.96L9.83606 11.479C9.76224 11.4031 9.68998 11.3257 9.61934 11.2468C9.28036 10.872 8.98055 10.4636 8.72456 10.0278C8.47508 9.58823 8.27115 9.12428 8.11597 8.64322C8.08301 8.54253 8.05213 8.44118 8.02334 8.33922" fill="var(--fill-0, white)"/>
</g>
</svg>
