<svg preserveAspectRatio="none" width="100%" height="100%" overflow="visible" style="display: block;" viewBox="0 0 16 16" fill="none" xmlns="http://www.w3.org/2000/svg">
<g id="Group 33504">
<path id="Vector 11 (Stroke)" fill-rule="evenodd" clip-rule="evenodd" d="M0.317323 0.317301C0.740391 -0.105767 1.42632 -0.105767 1.84939 0.317301L14.8494 13.3173C15.2725 13.7404 15.2725 14.4263 14.8494 14.8494C14.4263 15.2724 13.7404 15.2724 13.3173 14.8494L0.317323 1.84937C-0.105745 1.4263 -0.105745 0.740369 0.317323 0.317301Z" fill="var(--fill-0, white)"/>
<path id="Vector 12 (Stroke)" fill-rule="evenodd" clip-rule="evenodd" d="M14.8494 0.317301C14.4263 -0.105767 13.7404 -0.105767 13.3173 0.317301L0.317323 13.3173C-0.105745 13.7404 -0.105745 14.4263 0.317323 14.8494C0.740391 15.2724 1.42632 15.2724 1.84939 14.8494L14.8494 1.84937C15.2725 1.4263 15.2725 0.740369 14.8494 0.317301Z" fill="var(--fill-0, white)"/>
</g>
</svg>
