<svg preserveAspectRatio="none" width="100%" height="100%" overflow="visible" style="display: block;" viewBox="0 0 12 12" fill="none" xmlns="http://www.w3.org/2000/svg">
<g id="ph:currency-inr">
<path id="Vector" d="M9.75 3.75C9.75 3.84946 9.71049 3.94484 9.64017 4.01516C9.56984 4.08549 9.47446 4.125 9.375 4.125H7.86797C7.87219 4.18688 7.875 4.24922 7.875 4.3125C7.87413 5.05815 7.57754 5.77302 7.05028 6.30028C6.52302 6.82754 5.80815 7.12413 5.0625 7.125H4.34484L7.75219 10.2225C7.78931 10.2554 7.81953 10.2954 7.84109 10.3401C7.86265 10.3848 7.87512 10.4333 7.87779 10.4829C7.88045 10.5324 7.87326 10.582 7.85662 10.6288C7.83998 10.6755 7.81422 10.7185 7.78085 10.7552C7.74747 10.792 7.70714 10.8217 7.66219 10.8427C7.61724 10.8637 7.56856 10.8756 7.51898 10.8777C7.4694 10.8798 7.4199 10.872 7.37335 10.8548C7.32681 10.8376 7.28413 10.8113 7.24781 10.7775L3.12281 7.0275C3.0668 6.97659 3.02751 6.90993 3.0101 6.83627C2.99269 6.76261 2.99797 6.68541 3.02526 6.61481C3.05254 6.54421 3.10055 6.48352 3.16298 6.44072C3.2254 6.39792 3.29931 6.37501 3.375 6.375H5.0625C5.60932 6.37438 6.13356 6.15688 6.52022 5.77022C6.90688 5.38356 7.12438 4.85932 7.125 4.3125C7.125 4.24922 7.12172 4.18688 7.11609 4.125H3.375C3.27554 4.125 3.18016 4.08549 3.10984 4.01516C3.03951 3.94484 3 3.84946 3 3.75C3 3.65054 3.03951 3.55516 3.10984 3.48484C3.18016 3.41451 3.27554 3.375 3.375 3.375H6.89859C6.72588 3.03654 6.46302 2.75238 6.13902 2.55386C5.81502 2.35534 5.44248 2.25019 5.0625 2.25H3.375C3.27554 2.25 3.18016 2.21049 3.10984 2.14016C3.03951 2.06984 3 1.97446 3 1.875C3 1.77554 3.03951 1.68016 3.10984 1.60984C3.18016 1.53951 3.27554 1.5 3.375 1.5H9.375C9.47446 1.5 9.56984 1.53951 9.64017 1.60984C9.71049 1.68016 9.75 1.77554 9.75 1.875C9.75 1.97446 9.71049 2.06984 9.64017 2.14016C9.56984 2.21049 9.47446 2.25 9.375 2.25H6.97219C7.30674 2.5595 7.5612 2.94554 7.71375 3.375H9.375C9.47446 3.375 9.56984 3.41451 9.64017 3.48484C9.71049 3.55516 9.75 3.65054 9.75 3.75Z" fill="var(--fill-0, white)"/>
</g>
</svg>
