<svg preserveAspectRatio="none" width="100%" height="100%" overflow="visible" style="display: block;" viewBox="0 0 338 341" fill="none" xmlns="http://www.w3.org/2000/svg">
<g id="Group 16" opacity="0.3">
<path id="Vector" d="M72.9775 170.934C72.9775 152.143 78.5118 133.773 88.8807 118.148C99.2496 102.523 113.987 90.3448 131.23 83.1534C148.473 75.9621 167.446 74.0805 185.751 77.7466C204.056 81.4127 220.87 90.4619 234.067 103.75C247.265 117.038 256.252 133.967 259.893 152.398C263.534 170.829 261.665 189.933 254.523 207.294C247.381 224.656 235.286 239.495 219.768 249.935C204.25 260.375 186.005 265.948 167.342 265.948C142.323 265.92 118.337 255.901 100.646 238.089C82.9554 220.276 73.0047 196.125 72.9775 170.934ZM260.344 170.934C260.344 152.414 254.889 134.309 244.67 118.91C234.451 103.511 219.926 91.5084 202.932 84.4209C185.938 77.3333 167.239 75.4789 149.198 79.0921C131.157 82.7053 114.586 91.6238 101.58 104.72C88.573 117.816 79.7154 134.501 76.1269 152.666C72.5384 170.831 74.3802 189.659 81.4193 206.769C88.4584 223.88 100.379 238.505 115.673 248.794C130.967 259.084 148.948 264.576 167.342 264.576C191.999 264.548 215.639 254.674 233.074 237.119C250.509 219.563 260.316 195.761 260.344 170.934Z" fill="url(#paint0_linear_46317_1113)"/>
<path id="Vector_2" d="M6.41159 169.862C6.46443 129.369 21.4523 90.3393 48.468 60.3436C75.4836 30.3478 112.601 11.5242 152.621 7.52424C192.64 3.52425 232.709 14.633 265.054 38.6956C297.399 62.7581 319.715 98.0593 327.674 137.751C335.632 177.443 328.665 218.697 308.124 253.509C287.583 288.322 254.933 314.212 216.507 326.158C178.08 338.103 136.617 335.253 100.16 318.159C63.703 301.065 34.8508 270.947 19.2004 233.646C10.7208 213.467 6.3711 191.773 6.41159 169.862ZM330.527 169.862C330.52 132.257 317.564 95.8181 293.866 66.7533C270.168 37.6885 237.194 17.7962 200.562 10.4657C163.931 3.13521 125.909 8.82002 92.9733 26.5516C60.0381 44.2831 34.2277 72.9643 19.9398 107.708C5.65198 142.453 3.77066 181.11 14.6164 217.094C25.4621 253.078 48.3639 284.163 79.4197 305.052C110.475 325.94 147.764 335.341 184.931 331.652C222.099 327.962 256.846 311.411 283.253 284.819C298.296 269.76 310.22 251.845 318.335 232.112C326.449 212.378 330.594 191.22 330.527 169.862Z" fill="url(#paint1_linear_46317_1113)"/>
<path id="Vector_3" d="M168.75 339.634C167.452 339.841 166.123 339.656 164.93 339.103C163.736 338.549 162.733 337.652 162.047 336.524C161.36 335.396 161.021 334.089 161.073 332.767C161.125 331.445 161.565 330.169 162.337 329.099C163.11 328.029 164.18 327.214 165.413 326.756C166.646 326.299 167.985 326.22 169.263 326.53C170.54 326.839 171.697 327.524 172.588 328.496C173.479 329.468 174.064 330.684 174.268 331.991C174.405 332.858 174.371 333.743 174.168 334.597C173.964 335.45 173.596 336.255 173.083 336.965C172.571 337.675 171.924 338.276 171.181 338.734C170.437 339.192 169.611 339.498 168.75 339.634Z" fill="#DBC087"/>
<path id="Vector_4" d="M160.392 333.017C160.389 331.104 161.122 329.264 162.436 327.883C163.751 326.503 165.545 325.688 167.443 325.61C169.342 325.532 171.196 326.197 172.618 327.466C174.039 328.734 174.918 330.508 175.07 332.414C175.221 334.321 174.634 336.213 173.43 337.693C172.227 339.173 170.501 340.126 168.615 340.353C166.729 340.58 164.828 340.063 163.312 338.91C161.797 337.757 160.783 336.058 160.484 334.169C160.426 333.788 160.395 333.403 160.392 333.017ZM173.673 333.017C173.67 332.7 173.643 332.384 173.593 332.071C173.493 331.276 173.236 330.508 172.836 329.814C172.436 329.121 171.901 328.515 171.265 328.033C170.628 327.551 169.901 327.202 169.129 327.008C168.356 326.813 167.552 326.777 166.765 326.902C165.978 327.026 165.223 327.308 164.546 327.731C163.87 328.154 163.284 328.71 162.824 329.365C162.365 330.02 162.04 330.761 161.87 331.545C161.7 332.329 161.688 333.139 161.835 333.927C161.953 334.706 162.224 335.453 162.63 336.126C163.037 336.799 163.571 337.384 164.204 337.848C164.836 338.312 165.553 338.646 166.313 338.829C167.074 339.013 167.863 339.044 168.636 338.919C170.034 338.695 171.307 337.979 172.23 336.898C173.152 335.817 173.664 334.442 173.673 333.017Z" fill="url(#paint2_linear_46317_1113)"/>
<path id="Vector_5" d="M168.75 13.2894C167.452 13.4973 166.122 13.3126 164.928 12.7589C163.734 12.2051 162.73 11.3071 162.044 10.1787C161.357 9.0502 161.019 7.74199 161.071 6.41969C161.124 5.09739 161.565 3.82048 162.338 2.75066C163.112 1.68084 164.183 0.866217 165.417 0.409959C166.651 -0.0462988 167.991 -0.12367 169.269 0.187636C170.546 0.498941 171.703 1.18492 172.593 2.15871C173.483 3.13251 174.066 4.35032 174.268 5.65793C174.404 6.52387 174.368 7.40819 174.164 8.26037C173.96 9.11255 173.591 9.91591 173.079 10.6246C172.566 11.3332 171.92 11.9333 171.177 12.3906C170.435 12.8478 169.61 13.1532 168.75 13.2894Z" fill="url(#paint3_linear_46317_1113)"/>
<g id="Group">
<path id="Vector_6" d="M35.0044 170.935C35.0044 144.581 42.7659 118.819 57.3073 96.9062C71.8487 74.9937 92.5169 57.9151 116.698 47.8299C140.88 37.7447 167.488 35.1059 193.159 40.2473C218.83 45.3887 242.411 58.0793 260.918 76.7144C279.426 95.3494 292.03 119.092 297.136 144.939C302.242 170.787 299.622 197.578 289.605 221.926C279.589 246.274 262.627 267.084 240.864 281.726C219.102 296.367 193.516 304.182 167.342 304.182C132.255 304.144 98.6171 290.093 73.8074 265.112C48.9976 240.132 35.0427 206.262 35.0044 170.935ZM297.768 170.935C297.768 144.961 290.119 119.571 275.787 97.975C261.456 76.379 241.086 59.5469 217.254 49.6073C193.421 39.6677 167.197 37.0671 141.897 42.1342C116.596 47.2014 93.3567 59.7088 75.1162 78.0747C56.8757 96.4407 44.4538 119.84 39.4213 145.315C34.3887 170.789 36.9716 197.194 46.8433 221.19C56.715 245.186 73.4321 265.696 94.8806 280.126C116.329 294.556 141.546 302.258 167.342 302.258C201.921 302.22 235.074 288.372 259.525 263.752C283.976 239.132 297.73 205.752 297.768 170.935Z" fill="url(#paint4_linear_46317_1113)"/>
</g>
<path id="Vector_7" d="M3.45807 175.96C2.80072 175.481 2.24384 174.876 1.81944 174.179C1.39504 173.483 1.11148 172.709 0.985036 171.902C0.962263 171.58 0.962263 171.256 0.985036 170.934H13.3273C13.3269 172.081 13.011 173.205 12.4148 174.183C11.8186 175.16 10.9652 175.952 9.94929 176.472C8.93335 176.991 7.79449 177.217 6.65887 177.124C5.52325 177.032 4.43521 176.625 3.5153 175.948L3.45807 175.96Z" fill="#DBC087"/>
<path id="Vector_8" d="M8.19764 177.977C9.11705 177.831 9.99887 177.504 10.7928 177.015C11.5867 176.526 12.2771 175.884 12.8246 175.126C13.3721 174.368 13.766 173.509 13.9838 172.598C14.2016 171.687 14.2391 170.741 14.094 169.816C13.9489 168.89 13.6241 168.002 13.1382 167.203C12.6523 166.403 12.0148 165.708 11.2621 165.157C10.5094 164.605 9.65623 164.209 8.75128 163.99C7.84634 163.77 6.90734 163.733 5.98793 163.879C4.32124 164.145 2.80311 164.999 1.70579 166.29C0.608461 167.581 0.00372367 169.223 7.62939e-06 170.922C0.000768504 171.308 0.0313944 171.694 0.0916033 172.075C0.233742 173.002 0.556612 173.892 1.04163 174.693C1.52664 175.494 2.16421 176.19 2.91764 176.742C3.67106 177.294 4.52547 177.69 5.43163 177.908C6.3378 178.126 7.27785 178.161 8.19764 178.012V177.977ZM3.45767 175.96C2.80032 175.481 2.24345 174.876 1.81905 174.18C1.39465 173.483 1.11108 172.709 0.98464 171.902C0.961867 171.58 0.961867 171.256 0.98464 170.934H13.3269C13.3265 172.081 13.0106 173.206 12.4144 174.183C11.8182 175.161 10.9648 175.953 9.94889 176.472C8.93295 176.991 7.79409 177.217 6.65847 177.125C5.52285 177.032 4.43481 176.625 3.5149 175.948L3.45767 175.96Z" fill="url(#paint5_linear_46317_1113)"/>
<path id="Vector_9" d="M334.385 165.908C335.043 166.387 335.6 166.992 336.024 167.688C336.449 168.384 336.732 169.158 336.859 169.965C336.904 170.286 336.927 170.609 336.927 170.933H324.574C324.573 169.452 325.099 168.019 326.056 166.894C327.014 165.769 328.34 165.027 329.794 164.801C330.594 164.669 331.412 164.698 332.201 164.888C332.989 165.078 333.732 165.425 334.385 165.908Z" fill="#DBC087"/>
<path id="Vector_10" d="M329.68 163.879C328.756 164.02 327.869 164.343 327.07 164.829C326.271 165.316 325.575 165.957 325.023 166.716C324.47 167.475 324.073 168.336 323.852 169.25C323.631 170.164 323.592 171.112 323.737 172.042C323.882 172.971 324.208 173.862 324.696 174.664C325.184 175.466 325.825 176.163 326.582 176.714C327.338 177.266 328.196 177.662 329.105 177.878C330.013 178.095 330.956 178.129 331.878 177.978C333.543 177.712 335.059 176.859 336.156 175.571C337.254 174.282 337.86 172.643 337.866 170.946C337.866 170.56 337.835 170.174 337.774 169.793C337.632 168.867 337.31 167.978 336.826 167.177C336.341 166.376 335.705 165.68 334.953 165.127C334.201 164.575 333.348 164.177 332.443 163.957C331.538 163.737 330.599 163.698 329.68 163.844V163.879ZM334.408 165.908C335.066 166.387 335.623 166.992 336.047 167.688C336.471 168.385 336.755 169.159 336.881 169.966C336.927 170.287 336.95 170.61 336.95 170.934H324.573C324.573 169.453 325.099 168.02 326.056 166.895C327.014 165.77 328.34 165.027 329.794 164.801C330.594 164.669 331.412 164.699 332.201 164.889C332.989 165.079 333.732 165.425 334.385 165.908H334.408Z" fill="url(#paint6_linear_46317_1113)"/>
<path id="Vector_11" d="M48.4414 287.526C47.9781 286.652 47.7297 285.679 47.7169 284.688C47.7041 283.697 47.9274 282.718 48.3681 281.831C48.8087 280.945 49.4539 280.178 50.2495 279.595C51.0451 279.012 51.9681 278.629 52.9409 278.478C53.822 278.338 54.7226 278.392 55.5809 278.636C56.4393 278.88 57.2352 279.308 57.9138 279.89C58.5925 280.473 59.138 281.196 59.5128 282.011C59.8876 282.826 60.0829 283.712 60.0853 284.61C60.0827 285.623 59.8351 286.62 59.364 287.515C58.7638 286.633 57.9622 285.91 57.0265 285.405C56.0908 284.901 55.0485 284.629 53.9871 284.615C52.9257 284.6 51.8763 284.842 50.9272 285.321C49.978 285.799 49.157 286.501 48.533 287.365C48.4987 287.423 48.4758 287.48 48.4414 287.526Z" fill="#DBC087"/>
<path id="Vector_12" d="M55.0018 291.735C56.8412 291.431 58.487 290.408 59.5814 288.888C59.7319 288.686 59.8696 288.474 59.9936 288.254C60.6208 287.168 60.9525 285.934 60.9553 284.678C60.9581 283.421 60.632 282.186 60.0097 281.097C59.3874 280.008 58.4909 279.104 57.4107 278.475C56.3305 277.846 55.1047 277.514 53.8568 277.514C52.609 277.514 51.3832 277.846 50.303 278.475C49.2228 279.104 48.3263 280.008 47.704 281.097C47.0817 282.186 46.7555 283.421 46.7583 284.678C46.7612 285.934 47.0929 287.168 47.7201 288.254C48.2075 289.121 48.8754 289.872 49.6779 290.456C50.8884 291.343 52.348 291.82 53.8454 291.816C54.2324 291.82 54.6191 291.793 55.0018 291.735ZM48.8993 281.014C49.8228 279.754 51.1841 278.891 52.7118 278.596C54.2394 278.302 55.8212 278.598 57.1416 279.426C58.462 280.254 59.4241 281.552 59.836 283.062C60.2479 284.572 60.0793 286.183 59.3639 287.574C58.7638 286.692 57.9622 285.969 57.0265 285.464C56.0908 284.959 55.0484 284.688 53.987 284.673C52.9256 284.659 51.8762 284.901 50.9271 285.379C49.978 285.858 49.1569 286.559 48.533 287.424C48.533 287.482 48.4757 287.539 48.4414 287.585C47.8894 286.549 47.6396 285.377 47.7206 284.205C47.8016 283.032 48.2103 281.906 48.8993 280.957V281.014Z" fill="url(#paint7_linear_46317_1113)"/>
<path id="Vector_13" d="M47.7324 53.6251C47.2325 54.5736 46.9848 55.6361 47.0133 56.7095C47.0419 57.7829 47.3458 58.8305 47.8955 59.7507C48.4452 60.6708 49.222 61.4322 50.1503 61.9607C51.0787 62.4893 52.1271 62.767 53.1937 62.767C54.2602 62.767 55.3086 62.4893 56.237 61.9607C57.1654 61.4322 57.9422 60.6708 58.4919 59.7507C59.0416 58.8305 59.3455 57.7829 59.374 56.7095C59.4026 55.6361 59.1549 54.5736 58.6549 53.6251C58.0539 54.5059 57.2515 55.2286 56.3153 55.7322C55.3791 56.2359 54.3365 56.5059 53.2751 56.5194C52.2137 56.533 51.1646 56.2897 50.216 55.8101C49.2674 55.3305 48.4471 54.6286 47.824 53.7634L47.7324 53.6251Z" fill="#DBC087"/>
<path id="Vector_14" d="M53.1817 49.3835C51.6832 49.3841 50.2237 49.8645 49.0142 50.7553C48.2117 51.3387 47.5438 52.0897 47.0564 52.9571C46.4341 54.0419 46.1063 55.2725 46.1061 56.5252C46.1059 57.778 46.4333 59.0087 47.0552 60.0936C47.6772 61.1786 48.5719 62.0796 49.6493 62.706C50.7268 63.3325 51.949 63.6622 53.1932 63.6622C54.4373 63.6622 55.6596 63.3325 56.7371 62.706C57.8145 62.0796 58.7092 61.1786 59.3312 60.0936C59.9531 59.0087 60.2804 57.778 60.2802 56.5252C60.28 55.2725 59.9523 54.0419 59.3299 52.9571C59.2086 52.7356 59.0709 52.5237 58.9178 52.3231C58.3776 51.5689 57.6951 50.9292 56.9093 50.4406C56.1235 49.952 55.2498 49.6242 54.3381 49.4757C53.9557 49.414 53.569 49.3832 53.1817 49.3835ZM47.7319 53.6258L47.8235 53.7756C48.4466 54.6409 49.2669 55.3429 50.2155 55.8226C51.1641 56.3022 52.2132 56.5455 53.2746 56.532C54.336 56.5184 55.3786 56.2484 56.3148 55.7447C57.251 55.241 58.0534 54.5182 58.6544 53.6373C59.1544 54.5859 59.4021 55.6486 59.3735 56.7221C59.345 57.7956 59.0411 58.8434 58.4914 59.7636C57.9417 60.6839 57.1649 61.4453 56.2365 61.974C55.3081 62.5026 54.2597 62.7804 53.1932 62.7804C52.1266 62.7804 51.0782 62.5026 50.1499 61.974C49.2215 61.4453 48.4447 60.6839 47.895 59.7636C47.3453 58.8434 47.0414 57.7956 47.0128 56.7221C46.9843 55.6486 47.232 54.5859 47.7319 53.6373V53.6258Z" fill="url(#paint8_linear_46317_1113)"/>
<path id="Vector_15" d="M288.142 283.896C288.683 284.925 288.926 286.086 288.845 287.247C288.764 288.408 288.362 289.523 287.684 290.466C287.209 291.13 286.606 291.691 285.912 292.117C285.218 292.542 284.447 292.824 283.643 292.944C282.51 293.129 281.349 292.992 280.289 292.548C279.23 292.104 278.315 291.371 277.647 290.432C276.979 289.492 276.585 288.384 276.51 287.231C276.434 286.078 276.68 284.927 277.22 283.908C277.642 284.532 278.169 285.079 278.777 285.521C280.2 286.565 281.976 286.996 283.715 286.722C285.454 286.447 287.013 285.489 288.051 284.057C288.085 284.006 288.116 283.952 288.142 283.896Z" fill="#DBC087"/>
<path id="Vector_16" d="M281.593 279.747C279.754 280.051 278.108 281.075 277.014 282.594C276.876 282.79 276.739 283.009 276.601 283.24C275.977 284.326 275.647 285.559 275.645 286.815C275.644 288.07 275.971 289.304 276.594 290.391C277.217 291.479 278.113 292.383 279.193 293.011C280.272 293.639 281.497 293.969 282.744 293.969C283.991 293.969 285.216 293.639 286.295 293.011C287.375 292.383 288.271 291.479 288.894 290.391C289.517 289.304 289.844 288.07 289.842 286.815C289.841 285.559 289.511 284.326 288.886 283.24C288.396 282.371 287.724 281.62 286.917 281.038C285.708 280.147 284.248 279.667 282.75 279.666C282.363 279.662 281.976 279.689 281.593 279.747ZM287.696 290.468C287.22 291.132 286.618 291.693 285.924 292.118C285.23 292.544 284.458 292.826 283.654 292.946C282.521 293.131 281.36 292.994 280.301 292.55C279.241 292.106 278.326 291.373 277.658 290.433C276.991 289.494 276.597 288.385 276.521 287.232C276.446 286.079 276.692 284.928 277.231 283.908C277.653 284.533 278.18 285.08 278.788 285.522C280.211 286.566 281.987 286.998 283.726 286.723C285.465 286.449 287.025 285.49 288.062 284.058C288.097 284.007 288.128 283.953 288.154 283.897C288.692 284.927 288.934 286.089 288.851 287.25C288.768 288.411 288.364 289.526 287.684 290.468H287.696Z" fill="url(#paint9_linear_46317_1113)"/>
<path id="Vector_17" d="M277.22 57.6247C276.72 56.6763 276.472 55.6137 276.5 54.5404C276.529 53.467 276.833 52.4193 277.383 51.4992C277.932 50.579 278.709 49.8177 279.637 49.2891C280.566 48.7606 281.614 48.4828 282.681 48.4828C283.747 48.4828 284.796 48.7606 285.724 49.2891C286.653 49.8177 287.429 50.579 287.979 51.4992C288.529 52.4193 288.833 53.467 288.861 54.5404C288.89 55.6137 288.642 56.6763 288.142 57.6247C287.541 56.7439 286.739 56.0213 285.802 55.5176C284.866 55.014 283.824 54.744 282.762 54.7304C281.701 54.7169 280.652 54.9601 279.703 55.4397C278.755 55.9193 277.934 56.6212 277.311 57.4864L277.22 57.6247Z" fill="#DBC087"/>
<path id="Vector_18" d="M283.78 61.7761C285.621 61.4739 287.267 60.4501 288.36 58.9287C288.513 58.7281 288.651 58.5162 288.772 58.2946C289.652 56.7694 289.938 54.9693 289.574 53.2438C289.21 51.5183 288.223 49.9905 286.803 48.957C285.747 48.179 284.498 47.7109 283.194 47.6048C281.89 47.4987 280.582 47.7587 279.416 48.3559C278.25 48.9531 277.271 49.8642 276.588 50.9878C275.906 52.1115 275.546 53.4037 275.548 54.721C275.546 55.9758 275.874 57.2089 276.499 58.2946C277.117 59.3803 278.009 60.2823 279.085 60.9098C280.16 61.5373 281.381 61.8679 282.624 61.8683C283.011 61.8686 283.398 61.8378 283.78 61.7761ZM277.678 51.0551C278.601 49.7949 279.963 48.9316 281.49 48.6371C283.018 48.3427 284.6 48.6389 285.92 49.4665C287.241 50.2942 288.203 51.5926 288.614 53.1027C289.026 54.6129 288.858 56.2239 288.142 57.6145C287.541 56.7336 286.739 56.0108 285.803 55.5071C284.867 55.0034 283.824 54.7334 282.763 54.7198C281.701 54.7063 280.652 54.9496 279.703 55.4292C278.755 55.9089 277.935 56.6108 277.311 57.4762L277.22 57.626C276.68 56.5969 276.436 55.436 276.517 54.2747C276.598 53.1134 277 51.9982 277.678 51.0551Z" fill="url(#paint10_linear_46317_1113)"/>
<path id="Vector_19" d="M274.238 123.897L296.896 118.94L301.693 96.7605L306.513 119.079L328.553 123.897L306.605 128.704L301.693 151.449L296.804 128.843L274.238 123.897ZM301.716 103.228L298.063 120.093L280.684 123.897L297.983 127.69L301.716 144.982L305.471 127.552L322.153 123.897L305.379 120.231L301.716 103.228Z" fill="url(#paint11_linear_46317_1113)"/>
<path id="Vector_20" d="M167.407 288.763L188.618 210.06L224.462 230.731C224.601 230.819 224.765 230.856 224.927 230.837C225.09 230.818 225.241 230.745 225.357 230.628C225.472 230.512 225.546 230.36 225.564 230.196C225.583 230.032 225.546 229.867 225.459 229.728L204.956 193.63L283.173 172.263C283.328 172.218 283.464 172.125 283.563 171.997C283.661 171.869 283.716 171.713 283.72 171.551C283.721 171.388 283.668 171.229 283.569 171.1C283.47 170.97 283.331 170.878 283.173 170.839L204.956 149.471L225.491 113.39C225.57 113.252 225.601 113.092 225.581 112.934C225.561 112.776 225.49 112.629 225.379 112.516C225.266 112.398 225.117 112.322 224.956 112.301C224.795 112.281 224.632 112.317 224.494 112.403L188.65 133.074L167.439 54.3228C167.392 54.1702 167.298 54.0365 167.171 53.9407C167.044 53.8448 166.89 53.7916 166.732 53.7886C166.572 53.7864 166.415 53.8376 166.287 53.9342C166.159 54.0309 166.067 54.1675 166.024 54.3228L144.797 133.074L108.969 112.403C108.831 112.317 108.668 112.281 108.507 112.301C108.346 112.322 108.197 112.398 108.085 112.516C107.975 112.633 107.904 112.783 107.884 112.943C107.864 113.103 107.895 113.265 107.972 113.406L128.507 149.471L50.2739 170.839C50.1196 170.881 49.9839 170.975 49.8879 171.104C49.7919 171.232 49.741 171.39 49.7432 171.551C49.7461 171.711 49.799 171.865 49.8942 171.993C49.9895 172.121 50.1223 172.215 50.2739 172.263L128.507 193.63L107.972 229.695C107.886 229.835 107.848 230 107.867 230.164C107.886 230.327 107.959 230.48 108.074 230.596C108.19 230.713 108.341 230.786 108.504 230.805C108.666 230.823 108.83 230.786 108.969 230.699L144.765 210.06L165.992 288.795C166.032 288.953 166.123 289.094 166.251 289.193C166.379 289.293 166.537 289.347 166.699 289.345C166.864 289.339 167.023 289.279 167.151 289.174C167.278 289.069 167.368 288.924 167.407 288.763ZM202.785 150.394L196.353 161.628L192.574 147.626L202.785 150.394ZM176.637 141.734L187.798 135.259L190.547 145.506L176.637 141.734ZM190.178 146.946L182.427 154.765L168.243 146.574L174.852 142.77L190.178 146.946ZM172.794 142.22L167.423 145.311V140.763L172.794 142.22ZM165.96 145.311L160.621 142.22L165.96 140.763V145.311ZM142.932 145.538L145.682 135.291L156.842 141.766L142.932 145.538ZM158.627 142.77L165.236 146.574L151.053 154.765L143.302 146.93L158.627 142.77ZM150.024 155.801L141.887 170.078L138.108 163.425L142.257 147.982L150.024 155.801ZM165.96 147.836V169.77L152.114 155.833L165.96 147.836ZM167.423 147.836L181.285 155.833L167.423 169.77V147.836ZM183.375 155.801L191.126 147.982L195.291 163.425L191.512 170.078L183.375 155.801ZM203.46 149.083L192.911 146.202L221.471 117.453L203.46 149.083ZM220.442 116.417L191.882 145.166L189.02 134.547L220.442 116.417ZM187.267 133.835L174.515 141.184L167.375 139.241V60.0369L187.267 133.835ZM165.912 60.0369V139.241L158.772 141.184L146.036 133.835L165.912 60.0369ZM144.331 134.498L141.469 145.117L112.909 116.368L144.331 134.498ZM111.88 117.405L140.439 146.153L129.89 149.034L111.88 117.405ZM140.825 147.577L137.062 161.579L130.63 150.345L140.825 147.577ZM55.9022 170.758L129.215 150.75L136.516 163.57L134.586 170.758H55.9022ZM136.098 170.758L137.545 165.383L140.616 170.758H136.098ZM143.125 170.758L151.069 156.82L164.914 170.758H143.125ZM168.436 170.758L182.298 156.82L190.226 170.758H168.436ZM192.751 170.758L195.822 165.383L197.269 170.758H192.751ZM198.781 170.758L196.851 163.57L204.152 150.75L277.465 170.758H198.781ZM189.004 208.506L191.866 197.887L220.426 226.636L189.004 208.506ZM183.359 187.252L191.496 172.975L195.275 179.628L191.11 195.055L183.359 187.252ZM190.081 196.091L174.772 200.348L168.163 196.544L182.346 188.353L190.081 196.091ZM167.407 195.2V173.315L181.269 187.269L167.407 195.2ZM165.944 195.2L152.098 187.22L165.944 173.267V195.2ZM150.007 187.252L142.24 195.103L138.092 179.677L141.871 173.024L150.007 187.252ZM151.037 188.288L165.22 196.479L158.627 200.348L143.302 196.155L151.037 188.288ZM156.826 201.319L145.666 207.794L142.916 197.564L156.826 201.319ZM160.605 200.834L165.944 197.742V202.29L160.605 200.834ZM167.407 197.742L172.762 200.834L167.407 202.29V197.742ZM190.451 197.515L187.701 207.745L176.541 201.271L190.451 197.515ZM221.455 225.6L192.895 196.851L203.444 193.97L221.455 225.6ZM192.509 195.427L196.288 181.425L202.721 192.659L192.509 195.427ZM277.448 172.231L204.168 192.254L196.915 179.466L198.845 172.279L277.448 172.231ZM197.253 172.231L195.806 177.621L192.734 172.231H197.253ZM190.21 172.231L182.282 186.184L168.42 172.231H190.21ZM164.898 172.231L151.053 186.184L143.109 172.231H164.898ZM140.6 172.231L137.561 177.686L136.114 172.295L140.6 172.231ZM55.8861 172.231H134.57L136.5 179.418L129.231 192.254L55.8861 172.231ZM130.646 192.659L137.078 181.425L140.841 195.427L130.646 192.659ZM129.906 193.97L140.455 196.851L111.896 225.6L129.906 193.97ZM112.925 226.636L141.485 197.887L144.347 208.506L112.925 226.636ZM146.052 209.219L158.788 201.87L165.928 203.812V283.065L146.052 209.219ZM167.391 203.812L174.531 201.87L187.283 209.219L167.423 283.065L167.391 203.812Z" fill="url(#paint12_linear_46317_1113)"/>
</g>
<defs>
<linearGradient id="paint0_linear_46317_1113" x1="167.342" y1="75.921" x2="167.342" y2="265.948" gradientUnits="userSpaceOnUse">
<stop stop-color="#AB8D60"/>
<stop offset="0.07" stop-color="#B29466"/>
<stop offset="0.51" stop-color="#DBC087"/>
<stop offset="1" stop-color="#AB8D60"/>
</linearGradient>
<linearGradient id="paint1_linear_46317_1113" x1="310.125" y1="251.814" x2="27.2249" y2="89.6006" gradientUnits="userSpaceOnUse">
<stop stop-color="#666666"/>
<stop offset="0.28" stop-color="#A0A0A0"/>
<stop offset="0.51" stop-color="#CCCCCC"/>
<stop offset="1" stop-color="#666666"/>
</linearGradient>
<linearGradient id="paint2_linear_46317_1113" x1="167.72" y1="325.662" x2="167.72" y2="340.406" gradientUnits="userSpaceOnUse">
<stop stop-color="#AB8D60"/>
<stop offset="0.07" stop-color="#B29466"/>
<stop offset="0.51" stop-color="#DBC087"/>
<stop offset="1" stop-color="#AB8D60"/>
</linearGradient>
<linearGradient id="paint3_linear_46317_1113" x1="167.719" y1="0.0092333" x2="167.719" y2="13.3701" gradientUnits="userSpaceOnUse">
<stop stop-color="#AB8D60"/>
<stop offset="0.07" stop-color="#B29466"/>
<stop offset="0.51" stop-color="#DBC087"/>
<stop offset="1" stop-color="#AB8D60"/>
</linearGradient>
<linearGradient id="paint4_linear_46317_1113" x1="167.342" y1="37.687" x2="167.342" y2="304.182" gradientUnits="userSpaceOnUse">
<stop stop-color="#D7B676"/>
<stop offset="0.54"/>
<stop offset="1" stop-color="#C5A76E"/>
</linearGradient>
<linearGradient id="paint5_linear_46317_1113" x1="2.08376" y1="165.885" x2="12.182" y2="175.914" gradientUnits="userSpaceOnUse">
<stop stop-color="#AB8D60"/>
<stop offset="0.07" stop-color="#B29466"/>
<stop offset="0.51" stop-color="#DBC087"/>
<stop offset="1" stop-color="#AB8D60"/>
</linearGradient>
<linearGradient id="paint6_linear_46317_1113" x1="335.759" y1="175.983" x2="325.672" y2="165.954" gradientUnits="userSpaceOnUse">
<stop stop-color="#AB8D60"/>
<stop offset="0.07" stop-color="#B29466"/>
<stop offset="0.51" stop-color="#DBC087"/>
<stop offset="1" stop-color="#AB8D60"/>
</linearGradient>
<linearGradient id="paint7_linear_46317_1113" x1="48.8879" y1="279.573" x2="58.9861" y2="289.603" gradientUnits="userSpaceOnUse">
<stop stop-color="#AB8D60"/>
<stop offset="0.07" stop-color="#B29466"/>
<stop offset="0.51" stop-color="#DBC087"/>
<stop offset="1" stop-color="#AB8D60"/>
</linearGradient>
<linearGradient id="paint8_linear_46317_1113" x1="48.1784" y1="61.58" x2="58.2767" y2="51.5508" gradientUnits="userSpaceOnUse">
<stop stop-color="#AB8D60"/>
<stop offset="0.07" stop-color="#B29466"/>
<stop offset="0.51" stop-color="#DBC087"/>
<stop offset="1" stop-color="#AB8D60"/>
</linearGradient>
<linearGradient id="paint9_linear_46317_1113" x1="287.696" y1="291.851" x2="277.597" y2="281.822" gradientUnits="userSpaceOnUse">
<stop stop-color="#AB8D60"/>
<stop offset="0.07" stop-color="#B29466"/>
<stop offset="0.51" stop-color="#DBC087"/>
<stop offset="1" stop-color="#AB8D60"/>
</linearGradient>
<linearGradient id="paint10_linear_46317_1113" x1="277.655" y1="49.6717" x2="287.765" y2="59.7009" gradientUnits="userSpaceOnUse">
<stop stop-color="#AB8D60"/>
<stop offset="0.07" stop-color="#B29466"/>
<stop offset="0.51" stop-color="#DBC087"/>
<stop offset="1" stop-color="#AB8D60"/>
</linearGradient>
<linearGradient id="paint11_linear_46317_1113" x1="301.395" y1="96.7605" x2="301.395" y2="151.449" gradientUnits="userSpaceOnUse">
<stop stop-color="#666666"/>
<stop offset="0.28" stop-color="#A0A0A0"/>
<stop offset="0.51" stop-color="#CCCCCC"/>
<stop offset="1" stop-color="#666666"/>
</linearGradient>
<linearGradient id="paint12_linear_46317_1113" x1="49.711" y1="171.551" x2="283.688" y2="171.551" gradientUnits="userSpaceOnUse">
<stop stop-color="#999999"/>
<stop offset="0.07" stop-color="#A0A0A0"/>
<stop offset="0.51" stop-color="#CCCCCC"/>
<stop offset="1" stop-color="#999999"/>
</linearGradient>
</defs>
</svg>
