<svg preserveAspectRatio="none" width="100%" height="100%" overflow="visible" style="display: block;" viewBox="0 0 20 20" fill="none" xmlns="http://www.w3.org/2000/svg">
<path id="search_on" d="M17.5 19.3L11.15 12.95C10.65 13.3333 10.0375 13.6375 9.3125 13.8625C8.5875 14.0875 7.85 14.2 7.1 14.2C5.11667 14.2 3.4375 13.5125 2.0625 12.1375C0.6875 10.7625 0 9.08333 0 7.1C0 5.11667 0.6875 3.4375 2.0625 2.0625C3.4375 0.6875 5.11667 0 7.1 0C9.08333 0 10.7625 0.6875 12.1375 2.0625C13.5125 3.4375 14.2 5.11667 14.2 7.1C14.2 7.85 14.0958 8.56667 13.8875 9.25C13.6792 9.93333 13.375 10.5417 12.975 11.075L19.35 17.45L17.5 19.3ZM7.1 11.55C8.35 11.55 9.40417 11.1208 10.2625 10.2625C11.1208 9.40417 11.55 8.35 11.55 7.1C11.55 5.85 11.1208 4.79583 10.2625 3.9375C9.40417 3.07917 8.35 2.65 7.1 2.65C5.85 2.65 4.79583 3.07917 3.9375 3.9375C3.07917 4.79583 2.65 5.85 2.65 7.1C2.65 8.35 3.07917 9.40417 3.9375 10.2625C4.79583 11.1208 5.85 11.55 7.1 11.55Z" fill="var(--fill-0, #2930A6)"/>
</svg>
