<svg preserveAspectRatio="none" width="100%" height="100%" overflow="visible" style="display: block;" viewBox="0 0 18 17" fill="none" xmlns="http://www.w3.org/2000/svg">
<path id="grade" d="M4.40968 16.2107C3.65312 16.6671 2.71975 15.9899 2.91888 15.1291L3.87566 10.9928C3.95913 10.632 3.83631 10.2545 3.55645 10.0119L0.346316 7.22881C-0.321213 6.65008 0.0347372 5.55339 0.914899 5.47698L5.16122 5.10838C5.5304 5.07633 5.85158 4.84276 5.99585 4.50143L7.64023 0.610701C7.98437 -0.203566 9.13831 -0.203567 9.48245 0.6107L11.1268 4.50143C11.2711 4.84276 11.5923 5.07633 11.9615 5.10838L16.2078 5.47698C17.0879 5.55339 17.4439 6.65008 16.7764 7.22881L13.5662 10.0119C13.2864 10.2545 13.1635 10.632 13.247 10.9928L14.2038 15.1291C14.4029 15.9899 13.4696 16.6671 12.713 16.2107L9.07787 14.0179C8.76018 13.8262 8.3625 13.8262 8.04481 14.0179L4.40968 16.2107Z" fill="var(--fill-0, #FFC800)"/>
</svg>
