<svg preserveAspectRatio="none" width="100%" height="100%" overflow="visible" style="display: block;" viewBox="0 0 21 21" fill="none" xmlns="http://www.w3.org/2000/svg">
<g id="iconamoon:home">
<path id="Vector" d="M17.5 8.75C17.5 8.51794 17.4078 8.29538 17.2437 8.13128C17.0796 7.96719 16.8571 7.875 16.625 7.875C16.3929 7.875 16.1704 7.96719 16.0063 8.13128C15.8422 8.29538 15.75 8.51794 15.75 8.75H17.5ZM5.25 8.75C5.25 8.51794 5.15781 8.29538 4.99372 8.13128C4.82962 7.96719 4.60706 7.875 4.375 7.875C4.14294 7.875 3.92038 7.96719 3.75628 8.13128C3.59219 8.29538 3.5 8.51794 3.5 8.75H5.25ZM17.7564 11.1186C17.9214 11.278 18.1424 11.3662 18.3719 11.3642C18.6013 11.3622 18.8207 11.2702 18.983 11.108C19.1452 10.9457 19.2372 10.7263 19.2392 10.4969C19.2412 10.2674 19.153 10.0464 18.9936 9.88138L17.7564 11.1186ZM10.5 2.625L11.1186 2.00637C10.9545 1.84234 10.732 1.75019 10.5 1.75019C10.268 1.75019 10.0455 1.84234 9.88138 2.00637L10.5 2.625ZM2.00637 9.88138C1.9228 9.96209 1.85614 10.0586 1.81029 10.1654C1.76443 10.2721 1.74029 10.387 1.73928 10.5031C1.73827 10.6193 1.76041 10.7346 1.80441 10.8421C1.8484 10.9496 1.91337 11.0473 1.99553 11.1295C2.07769 11.2116 2.17538 11.2766 2.28292 11.3206C2.39045 11.3646 2.50567 11.3867 2.62185 11.3857C2.73803 11.3847 2.85285 11.3606 2.9596 11.3147C3.06636 11.2689 3.16291 11.2022 3.24363 11.1186L2.00637 9.88138ZM6.125 19.25H14.875V17.5H6.125V19.25ZM17.5 16.625V8.75H15.75V16.625H17.5ZM5.25 16.625V8.75H3.5V16.625H5.25ZM18.9936 9.88138L11.1186 2.00637L9.88138 3.24363L17.7564 11.1186L18.9936 9.88138ZM9.88138 2.00637L2.00637 9.88138L3.24363 11.1186L11.1186 3.24363L9.88138 2.00637ZM14.875 19.25C15.5712 19.25 16.2389 18.9734 16.7312 18.4812C17.2234 17.9889 17.5 17.3212 17.5 16.625H15.75C15.75 16.8571 15.6578 17.0796 15.4937 17.2437C15.3296 17.4078 15.1071 17.5 14.875 17.5V19.25ZM6.125 17.5C5.89294 17.5 5.67038 17.4078 5.50628 17.2437C5.34219 17.0796 5.25 16.8571 5.25 16.625H3.5C3.5 17.3212 3.77656 17.9889 4.26884 18.4812C4.76113 18.9734 5.42881 19.25 6.125 19.25V17.5Z" fill="var(--fill-0, white)"/>
</g>
</svg>
