<svg preserveAspectRatio="none" width="100%" height="100%" overflow="visible" style="display: block;" viewBox="0 0 19 18" fill="none" xmlns="http://www.w3.org/2000/svg">
<path id="Vector" fill-rule="evenodd" clip-rule="evenodd" d="M2 15C2 15.5523 2.44772 16 3 16H11C11.5523 16 12 16.4477 12 17C12 17.5523 11.5523 18 11 18H3C1.34315 18 0 16.6569 0 15V3C0 1.34315 1.34315 0 3 0H11C11.5523 0 12 0.44772 12 1C12 1.55229 11.5523 2 11 2H3C2.44772 2 2 2.44772 2 3V15ZM6 9C6 8.4477 6.44772 8 7 8H15.5858L14.2929 6.70711C13.9024 6.31658 13.9024 5.68342 14.2929 5.29289C14.6834 4.90237 15.3166 4.90237 15.7071 5.29289L18.7071 8.2929C19.0976 8.6834 19.0976 9.3166 18.7071 9.7071L15.7071 12.7071C15.3166 13.0976 14.6834 13.0976 14.2929 12.7071C13.9024 12.3166 13.9024 11.6834 14.2929 11.2929L15.5858 10H7C6.44772 10 6 9.5523 6 9Z" fill="var(--fill-0, white)"/>
</svg>
