<svg preserveAspectRatio="none" width="100%" height="100%" overflow="visible" style="display: block;" viewBox="0 0 20 20" fill="none" xmlns="http://www.w3.org/2000/svg">
<path id="Vector (Stroke)" fill-rule="evenodd" clip-rule="evenodd" d="M10 2C5.58172 2 2 5.58172 2 10C2 11.6921 2.52425 13.2588 3.41916 14.5503C3.71533 14.9778 3.78673 15.5484 3.55213 16.0532L2.64729 18H10C14.4183 18 18 14.4183 18 10C18 5.58172 14.4183 2 10 2ZM0 10C0 4.47715 4.47715 0 10 0C15.5228 0 20 4.47715 20 10C20 15.5228 15.5228 20 10 20H1.86159C0.727364 20 0.00986135 18.7933 0.534056 17.8016L1.62175 15.4613C0.596211 13.8909 0 12.0137 0 10Z" fill="var(--fill-0, white)"/>
</svg>
