<svg preserveAspectRatio="none" width="100%" height="100%" overflow="visible" style="display: block;" viewBox="0 0 7 7" fill="none" xmlns="http://www.w3.org/2000/svg">
<g id="Group">
<path id="Vector" d="M5.33216 0.25H1.8608V2.14243M1.12596 2.14292H3.9095V3.14216C3.9095 3.53182 3.76282 3.90551 3.50173 4.18104C3.24063 4.45656 2.88651 4.61135 2.51727 4.61135C2.14803 4.61135 1.79391 4.45656 1.53281 4.18104C1.27172 3.90551 1.12504 3.53182 1.12504 3.14216L1.12596 2.14292Z" stroke="var(--stroke-0, #31576F)" stroke-width="0.5" stroke-linecap="round" stroke-linejoin="round"/>
<path id="Vector_2" d="M0.250049 6.57432C0.431685 6.2333 0.708288 5.94141 1.53072 5.94141H4.44242C4.80714 5.94141 5.15693 5.78851 5.41482 5.51636C5.67272 5.24421 5.8176 4.8751 5.8176 4.49022V3.59362C5.81748 3.20883 5.67254 2.83984 5.41466 2.56779C5.15678 2.29574 4.80706 2.14292 4.44242 2.14292H3.90996V0.25" stroke="var(--stroke-0, #31576F)" stroke-width="0.5" stroke-linecap="round" stroke-linejoin="round"/>
</g>
</svg>
