<svg preserveAspectRatio="none" width="100%" height="100%" overflow="visible" style="display: block;" viewBox="0 0 14 14" fill="none" xmlns="http://www.w3.org/2000/svg">
<path id="person" d="M6.74537 6.74537C5.81788 6.74537 5.02389 6.41513 4.36341 5.75464C3.70293 5.09416 3.37268 4.30017 3.37268 3.37268C3.37268 2.4452 3.70293 1.65121 4.36341 0.990726C5.02389 0.330242 5.81788 0 6.74537 0C7.67286 0 8.46684 0.330242 9.12733 0.990726C9.78781 1.65121 10.1181 2.4452 10.1181 3.37268C10.1181 4.30017 9.78781 5.09416 9.12733 5.75464C8.46684 6.41513 7.67286 6.74537 6.74537 6.74537ZM0 13.4907V11.1299C0 10.6521 0.122962 10.2129 0.368887 9.8124C0.614812 9.4119 0.941541 9.10625 1.34907 8.89545C2.22035 8.45982 3.10568 8.13309 4.00506 7.91527C4.90445 7.69745 5.81788 7.58854 6.74537 7.58854C7.67286 7.58854 8.58629 7.69745 9.48567 7.91527C10.3851 8.13309 11.2704 8.45982 12.1417 8.89545C12.5492 9.10625 12.8759 9.4119 13.1219 9.8124C13.3678 10.2129 13.4907 10.6521 13.4907 11.1299V13.4907H0Z" fill="var(--fill-0, #2930A6)"/>
</svg>
