<svg preserveAspectRatio="none" width="100%" height="100%" overflow="visible" style="display: block;" viewBox="0 0 10 14" fill="none" xmlns="http://www.w3.org/2000/svg">
<g id="Group 1171274997">
<path id="Vector" d="M9.5625 3.1875C9.5625 3.3284 9.50653 3.46352 9.4069 3.56315C9.30727 3.66278 9.17215 3.71875 9.03125 3.71875H6.89629C6.90227 3.80641 6.90625 3.89473 6.90625 3.98438C6.90502 5.04072 6.48484 6.05345 5.73789 6.80039C4.99095 7.54734 3.97822 7.96752 2.92188 7.96875H1.9052L6.73227 12.3569C6.78486 12.4035 6.82766 12.4602 6.85821 12.5235C6.88875 12.5868 6.90642 12.6555 6.9102 12.7257C6.91397 12.7959 6.90378 12.8662 6.88021 12.9324C6.85663 12.9987 6.82015 13.0595 6.77287 13.1116C6.72559 13.1636 6.66845 13.2057 6.60477 13.2355C6.54109 13.2653 6.47213 13.2821 6.40189 13.2851C6.33165 13.288 6.26153 13.277 6.19558 13.2526C6.12964 13.2282 6.06919 13.191 6.01773 13.1431L0.173985 7.83062C0.0946385 7.75851 0.0389726 7.66406 0.0143055 7.55971C-0.0103616 7.45537 -0.00287557 7.346 0.0357794 7.24598C0.0744343 7.14597 0.142449 7.05999 0.230882 6.99936C0.319314 6.93872 0.424026 6.90626 0.53125 6.90625H2.92188C3.69653 6.90537 4.43921 6.59725 4.98698 6.04948C5.53475 5.50171 5.84287 4.75903 5.84375 3.98438C5.84375 3.89473 5.8391 3.80641 5.83113 3.71875H0.53125C0.390354 3.71875 0.255228 3.66278 0.1556 3.56315C0.0559709 3.46352 0 3.3284 0 3.1875C0 3.0466 0.0559709 2.91148 0.1556 2.81185C0.255228 2.71222 0.390354 2.65625 0.53125 2.65625H5.52301C5.27832 2.17677 4.90594 1.7742 4.44694 1.49297C3.98795 1.21174 3.46018 1.06277 2.92188 1.0625H0.53125C0.390354 1.0625 0.255228 1.00653 0.1556 0.9069C0.0559709 0.807272 0 0.672146 0 0.53125C0 0.390354 0.0559709 0.255228 0.1556 0.1556C0.255228 0.0559709 0.390354 0 0.53125 0H9.03125C9.17215 0 9.30727 0.0559709 9.4069 0.1556C9.50653 0.255228 9.5625 0.390354 9.5625 0.53125C9.5625 0.672146 9.50653 0.807272 9.4069 0.9069C9.30727 1.00653 9.17215 1.0625 9.03125 1.0625H5.62727C6.10121 1.50095 6.4617 2.04784 6.67781 2.65625H9.03125C9.17215 2.65625 9.30727 2.71222 9.4069 2.81185C9.50653 2.91148 9.5625 3.0466 9.5625 3.1875Z" fill="var(--fill-0, black)"/>
</g>
</svg>
