<svg preserveAspectRatio="none" width="100%" height="100%" overflow="visible" style="display: block;" viewBox="0 0 346 22" fill="none" xmlns="http://www.w3.org/2000/svg">
<g id="Group 25">
<path id="Vector" d="M209.873 0H141.673C135.598 0 130.673 4.92487 130.673 11C130.673 17.0751 135.598 22 141.673 22H209.873C215.948 22 220.873 17.0751 220.873 11C220.873 4.92487 215.948 0 209.873 0Z" fill="var(--fill-0, black)"/>
<path id="Vector_2" fill-rule="evenodd" clip-rule="evenodd" d="M341.871 6.5H322.636C321.817 6.5 321.153 7.168 321.153 8.0001V14.4999C321.153 15.3284 321.818 16 322.636 16H341.871C342.69 16 343.353 15.332 343.353 14.4999V8.0001C343.353 7.1716 342.689 6.5 341.871 6.5ZM321.647 8.0001C321.647 7.4458 322.088 7 322.636 7H341.871C342.417 7 342.86 7.4482 342.86 8.0001V14.5C342.86 15.0543 342.419 15.5 341.871 15.5H322.636C322.09 15.5 321.647 15.0518 321.647 14.5V8.0001Z" fill="var(--fill-0, black)"/>
<path id="Vector_3" fill-rule="evenodd" clip-rule="evenodd" d="M322.64 7.5C322.364 7.5 322.14 7.7239 322.14 8V14.5C322.14 14.7761 322.364 15 322.64 15H336.94V7.5H322.64Z" fill="var(--fill-0, black)"/>
<path id="Vector_4" fill-rule="evenodd" clip-rule="evenodd" d="M345.327 11.25C345.327 12.1406 344.684 12.8775 343.847 13V9.5C344.684 9.6225 345.327 10.3594 345.327 11.25Z" fill="var(--fill-0, black)"/>
<path id="Vector_5" d="M1.1333 13.9795H1.2407C1.7348 13.9795 2.1466 13.915 2.476 13.7861C2.809 13.6536 3.074 13.471 3.271 13.2383C3.4679 13.0055 3.6093 12.7316 3.6953 12.4165C3.7812 12.1014 3.8242 11.7594 3.8242 11.3906V10.0425C3.8242 9.72383 3.7902 9.44453 3.7221 9.20463C3.6577 8.96113 3.5646 8.75882 3.4428 8.59772C3.3247 8.43292 3.1868 8.30943 3.0293 8.22713C2.8753 8.14473 2.7088 8.10353 2.5297 8.10353C2.3328 8.10353 2.1556 8.14833 1.998 8.23783C1.844 8.32373 1.7133 8.44372 1.6059 8.59772C1.5021 8.74802 1.4215 8.92533 1.3642 9.12943C1.3105 9.32993 1.2837 9.54483 1.2837 9.77393C1.2837 9.98883 1.3087 10.1965 1.3588 10.397C1.4126 10.5939 1.4913 10.7694 1.5952 10.9233C1.699 11.0773 1.8297 11.1991 1.9873 11.2886C2.1448 11.3781 2.3292 11.4229 2.5405 11.4229C2.741 11.4229 2.9254 11.3853 3.0937 11.3101C3.262 11.2313 3.4088 11.1257 3.5341 10.9932C3.6595 10.8607 3.7579 10.7121 3.8295 10.5474C3.9012 10.3826 3.9406 10.2144 3.9477 10.0425L4.4419 10.1929C4.4419 10.465 4.3846 10.7336 4.27 10.9985C4.159 11.2599 4.0032 11.4998 3.8027 11.7183C3.6058 11.9331 3.3748 12.105 3.1098 12.2339C2.8484 12.3628 2.5638 12.4272 2.2558 12.4272C1.8834 12.4272 1.554 12.3574 1.2675 12.2178C0.984702 12.0745 0.748301 11.8812 0.558601 11.6377C0.372401 11.3942 0.232703 11.1149 0.139603 10.7998C0.0465027 10.4847 0 10.1535 0 9.80622C0 9.43022 0.0573025 9.07753 0.171803 8.74803C0.286403 8.41863 0.452903 8.12863 0.671303 7.87793C0.889803 7.62373 1.1547 7.42683 1.4663 7.28713C1.7814 7.14393 2.1377 7.07233 2.5351 7.07233C2.9576 7.07233 3.3282 7.15463 3.6469 7.31933C3.9656 7.48403 4.2342 7.71143 4.4526 8.00153C4.671 8.29153 4.8357 8.62813 4.9467 9.01123C5.0577 9.39443 5.1132 9.80623 5.1132 10.2466V10.7031C5.1132 11.165 5.0721 11.6108 4.9897 12.0405C4.9073 12.4666 4.7731 12.8623 4.5869 13.2275C4.4043 13.5892 4.1626 13.9079 3.8618 14.1836C3.5646 14.4557 3.1993 14.6688 2.7661 14.8228C2.3364 14.9731 1.8315 15.0483 1.2514 15.0483H1.1333V13.9795ZM6.4345 14.3555C6.4345 14.1549 6.5026 13.9867 6.6386 13.8506C6.7747 13.7109 6.9591 13.6411 7.1919 13.6411C7.4282 13.6411 7.6126 13.7109 7.7451 13.8506C7.8811 13.9867 7.9492 14.1549 7.9492 14.3555C7.9492 14.556 7.8811 14.7243 7.7451 14.8604C7.6126 14.9964 7.4282 15.0645 7.1919 15.0645C6.9591 15.0645 6.7747 14.9964 6.6386 14.8604C6.5026 14.7243 6.4345 14.556 6.4345 14.3555ZM6.4399 9.77933C6.4399 9.57883 6.5079 9.41053 6.644 9.27443C6.7801 9.13483 6.9645 9.06493 7.1972 9.06493C7.4336 9.06493 7.618 9.13483 7.7504 9.27443C7.8865 9.41053 7.9545 9.57883 7.9545 9.77933C7.9545 9.97983 7.8865 10.1481 7.7504 10.2842C7.618 10.4202 7.4336 10.4883 7.1972 10.4883C6.9645 10.4883 6.7801 10.4202 6.644 10.2842C6.5079 10.1481 6.4399 9.97983 6.4399 9.77933ZM14.6308 12.2124V13.2437H8.9912L8.9482 12.4648L12.3212 7.17973H13.3579L12.2353 9.10253L10.2963 12.2124H14.6308ZM13.6533 7.17973V15H12.3588V7.17973H13.6533ZM19.0297 7.15283V15H17.7353V8.68903L15.8178 9.33893V8.27003L18.874 7.15283H19.0297ZM27.7363 8.22173L25.3999 15H23.9873L26.9306 7.17973H27.833L27.7363 8.22173ZM29.6914 15L27.3496 8.22173L27.2475 7.17973H28.1552L31.1093 15H29.6914ZM29.5786 12.0996V13.1685H25.3247V12.0996H29.5786ZM32.5327 7.17973H33.7358L35.997 13.2114L38.2529 7.17973H39.456L36.4697 15H35.5136L32.5327 7.17973ZM31.9848 7.17973H33.1289L33.3276 12.4004V15H31.9848V7.17973ZM38.8598 7.17973H40.0092V15H38.6611V12.4004L38.8598 7.17973Z" fill="var(--fill-0, black)"/>
<path id="Vector_6" fill-rule="evenodd" clip-rule="evenodd" d="M310.296 8.5209C312.21 8.5209 313.954 9.2355 315.291 10.4072L316.22 9.3681C314.636 7.9745 312.567 7 310.296 7C308.028 7 305.962 7.9715 304.38 9.3607L305.307 10.4013C306.643 9.233 308.384 8.5209 310.296 8.5209ZM310.296 11.5202C311.443 11.5202 312.491 11.9423 313.299 12.6376L314.282 11.5379C313.212 10.6078 311.822 10.0003 310.296 10.0003C308.773 10.0003 307.383 10.6063 306.315 11.5335L307.296 12.6347C308.104 11.9408 309.15 11.5202 310.296 11.5202ZM312.316 13.7374C311.769 13.2773 311.065 12.9587 310.295 12.9587C309.527 12.9587 308.824 13.2768 308.277 13.7349L310.295 16L312.316 13.7374Z" fill="var(--fill-0, black)"/>
<path id="Vector_7" d="M290.567 11H288.593V16H290.567V11Z" fill="var(--fill-0, black)"/>
<path id="Vector_8" d="M287.607 12H285.633V16H287.607V12Z" fill="var(--fill-0, black)"/>
<path id="Vector_9" d="M293.527 10H291.553V16H293.527V10Z" fill="var(--fill-0, black)"/>
<path id="Vector_10" d="M296.487 8H294.513V16H296.487V8Z" fill="var(--fill-0, black)"/>
<path id="Vector_11" d="M299.447 6H297.473V16H299.447V6Z" fill="var(--fill-0, black)" fill-opacity="0.21"/>
</g>
</svg>
