<svg preserveAspectRatio="none" width="100%" height="100%" overflow="visible" style="display: block;" viewBox="0 0 19 19" fill="none" xmlns="http://www.w3.org/2000/svg">
<g id="Group">
<path id="Vector" d="M9.08333 18.25C15.125 18.25 17.4167 17 17.4167 12.4167M1.91792 14.4096C1.21625 14.2342 0.75 13.5938 0.75 12.8708V10.2967C0.75 9.57333 1.21625 8.9325 1.91792 8.75708C2.59542 8.5875 3.48542 8.39708 4.36042 8.30542C4.95958 8.2425 5.48708 8.59375 5.58667 9.1875C5.67417 9.70583 5.75 10.4754 5.75 11.5833C5.75 12.6917 5.67375 13.4613 5.58667 13.9792C5.48667 14.5729 4.95958 14.9242 4.36042 14.8617C3.48542 14.77 2.59542 14.5792 1.91792 14.4096Z" stroke="var(--stroke-0, white)" stroke-width="1.5" stroke-linecap="round" stroke-linejoin="round"/>
<path id="Vector_2" d="M16.2487 14.4096C16.9504 14.2342 17.4167 13.5938 17.4167 12.8708V10.2967C17.4167 9.57333 16.9504 8.9325 16.2487 8.75708C15.5712 8.5875 14.6812 8.39708 13.8062 8.30542C13.2071 8.2425 12.6796 8.59375 12.58 9.1875C12.4925 9.70583 12.4167 10.4754 12.4167 11.5833C12.4167 12.6917 12.4929 13.4613 12.58 13.9792C12.68 14.5729 13.2071 14.9242 13.8062 14.8617C14.6812 14.77 15.5712 14.5792 16.2487 14.4096Z" stroke="var(--stroke-0, white)" stroke-width="1.5" stroke-linecap="round" stroke-linejoin="round"/>
<path id="Vector_3" d="M17.4167 10.2962V9.08333C17.4167 4.48083 13.6858 0.75 9.08333 0.75C4.48083 0.75 0.75 4.48083 0.75 9.08333V10.2962M14.8983 8.46375C14.6608 5.54583 12.1483 3.25 9.08333 3.25C6.01833 3.25 3.50583 5.54583 3.26833 8.46375" stroke="var(--stroke-0, white)" stroke-width="1.5" stroke-linecap="round" stroke-linejoin="round"/>
</g>
</svg>
