<svg preserveAspectRatio="none" width="100%" height="100%" overflow="visible" style="display: block;" viewBox="0 0 18 16" fill="none" xmlns="http://www.w3.org/2000/svg">
<g id="Group">
<path id="Vector" d="M14.75 15.0969H2.5C2.03587 15.0969 1.59075 14.9125 1.26256 14.5843C0.934374 14.2561 0.75 13.811 0.75 13.3469V5.47189C0.75 5.00776 0.934374 4.56264 1.26256 4.23445C1.59075 3.90626 2.03587 3.72189 2.5 3.72189H14.75C15.2141 3.72189 15.6592 3.90626 15.9874 4.23445C16.3156 4.56264 16.5 5.00776 16.5 5.47189V13.3469C16.5 13.811 16.3156 14.2561 15.9874 14.5843C15.6592 14.9125 15.2141 15.0969 14.75 15.0969Z" stroke="var(--stroke-0, white)" stroke-width="1.5"/>
<path id="Vector_2" d="M12.5625 9.84689C12.4465 9.84689 12.3352 9.80079 12.2531 9.71875C12.1711 9.6367 12.125 9.52542 12.125 9.40939C12.125 9.29336 12.1711 9.18208 12.2531 9.10003C12.3352 9.01798 12.4465 8.97189 12.5625 8.97189C12.6785 8.97189 12.7898 9.01798 12.8719 9.10003C12.9539 9.18208 13 9.29336 13 9.40939C13 9.52542 12.9539 9.6367 12.8719 9.71875C12.7898 9.80079 12.6785 9.84689 12.5625 9.84689Z" fill="var(--fill-0, white)" stroke="var(--stroke-0, white)" stroke-width="1.5" stroke-linecap="round" stroke-linejoin="round"/>
<path id="Vector_3" d="M13.875 3.72189V2.49951C13.8749 2.23133 13.8132 1.96675 13.6946 1.7262C13.576 1.48566 13.4038 1.27559 13.1911 1.11221C12.9784 0.948834 12.731 0.836524 12.468 0.783952C12.2051 0.731381 11.9335 0.739955 11.6744 0.809013L2.04938 3.37539C1.67667 3.47471 1.34722 3.69438 1.11224 4.00025C0.877261 4.30612 0.749915 4.68105 0.75 5.06676V5.47189" stroke="var(--stroke-0, white)" stroke-width="1.5"/>
</g>
</svg>
