<svg preserveAspectRatio="none" width="100%" height="100%" overflow="visible" style="display: block;" viewBox="0 0 18 19" fill="none" xmlns="http://www.w3.org/2000/svg">
<g id="Group">
<path id="Vector" d="M3.7564 6.60984H1.20797C0.678734 6.60984 0.25 7.06227 0.25 7.62076V17.2391C0.25 17.7976 0.678734 18.25 1.20797 18.25H16.292C16.8213 18.25 17.25 17.7976 17.25 17.2391V7.62076C17.25 7.06227 16.8213 6.60984 16.292 6.60984H13.8561" stroke="var(--stroke-0, #31576F)" stroke-width="0.5" stroke-linecap="round" stroke-linejoin="round"/>
<path id="Vector_2" d="M13.2323 14.9725H4.38014C4.27295 14.9725 4.18606 15.0642 4.18606 15.1773V16.3863C4.18606 16.4994 4.27295 16.5911 4.38014 16.5911H13.2323C13.3395 16.5911 13.4264 16.4994 13.4264 16.3863V15.1773C13.4264 15.0642 13.3395 14.9725 13.2323 14.9725Z" stroke="var(--stroke-0, #31576F)" stroke-width="0.5" stroke-linecap="round" stroke-linejoin="round"/>
<path id="Vector_3" d="M3.99151 12.0619H2.82794C2.72075 12.0619 2.63385 12.1536 2.63385 12.2667V13.4946C2.63385 13.6077 2.72075 13.6994 2.82794 13.6994H3.99151C4.0987 13.6994 4.18559 13.6077 4.18559 13.4946V12.2667C4.18559 12.1536 4.0987 12.0619 3.99151 12.0619Z" stroke="var(--stroke-0, #31576F)" stroke-width="0.5" stroke-linecap="round" stroke-linejoin="round"/>
<path id="Vector_4" d="M6.68977 12.0619H5.5262C5.41901 12.0619 5.33211 12.1536 5.33211 12.2667V13.4946C5.33211 13.6077 5.41901 13.6994 5.5262 13.6994H6.68977C6.79696 13.6994 6.88385 13.6077 6.88385 13.4946V12.2667C6.88385 12.1536 6.79696 12.0619 6.68977 12.0619Z" stroke="var(--stroke-0, #31576F)" stroke-width="0.5" stroke-linecap="round" stroke-linejoin="round"/>
<path id="Vector_5" d="M9.58211 12.3416V13.4946C9.58217 13.5215 9.57721 13.5481 9.56751 13.5729C9.5578 13.5978 9.54355 13.6204 9.52557 13.6394C9.50758 13.6584 9.48621 13.6735 9.46269 13.6838C9.43917 13.6941 9.41396 13.6994 9.38849 13.6994H8.22446C8.1731 13.6994 8.12385 13.6779 8.08754 13.6396C8.05123 13.6012 8.03083 13.5493 8.03083 13.4951V12.3421" stroke="var(--stroke-0, #31576F)" stroke-width="0.5" stroke-linecap="round" stroke-linejoin="round"/>
<path id="Vector_6" d="M12.0858 12.0619H10.9223C10.8151 12.0619 10.7282 12.1536 10.7282 12.2667V13.4946C10.7282 13.6077 10.8151 13.6994 10.9223 13.6994H12.0858C12.193 13.6994 12.2799 13.6077 12.2799 13.4946V12.2667C12.2799 12.1536 12.193 12.0619 12.0858 12.0619Z" stroke="var(--stroke-0, #31576F)" stroke-width="0.5" stroke-linecap="round" stroke-linejoin="round"/>
<path id="Vector_7" d="M14.7841 12.0619H13.6205C13.5133 12.0619 13.4264 12.1536 13.4264 12.2667V13.4946C13.4264 13.6077 13.5133 13.6994 13.6205 13.6994H14.7841C14.8913 13.6994 14.9782 13.6077 14.9782 13.4946V12.2667C14.9782 12.1536 14.8913 12.0619 14.7841 12.0619Z" stroke="var(--stroke-0, #31576F)" stroke-width="0.5" stroke-linecap="round" stroke-linejoin="round"/>
<path id="Vector_8" d="M3.99151 9.15124H2.82794C2.72075 9.15124 2.63385 9.24294 2.63385 9.35605V10.5839C2.63385 10.6971 2.72075 10.7888 2.82794 10.7888H3.99151C4.0987 10.7888 4.1856 10.6971 4.1856 10.5839V9.35605C4.1856 9.24294 4.0987 9.15124 3.99151 9.15124Z" stroke="var(--stroke-0, #31576F)" stroke-width="0.5" stroke-linecap="round" stroke-linejoin="round"/>
<path id="Vector_9" d="M6.11121 10.7888H5.52573C5.50027 10.7888 5.47505 10.7835 5.45153 10.7732C5.42801 10.7629 5.40665 10.7478 5.38866 10.7287C5.37067 10.7097 5.35642 10.6871 5.34672 10.6623C5.33702 10.6374 5.33205 10.6108 5.33211 10.5839V10.1583M12.2804 10.1583V10.5839C12.2804 10.6108 12.2753 10.6374 12.2656 10.6623C12.2558 10.6871 12.2415 10.7096 12.2235 10.7286C12.2055 10.7476 12.1841 10.7626 12.1605 10.7729C12.137 10.7831 12.1118 10.7883 12.0863 10.7883H11.5013" stroke="var(--stroke-0, #31576F)" stroke-width="0.5" stroke-linecap="round" stroke-linejoin="round"/>
<path id="Vector_10" d="M14.7841 9.15124H13.6205C13.5133 9.15124 13.4264 9.24294 13.4264 9.35605V10.5839C13.4264 10.6971 13.5133 10.7888 13.6205 10.7888H14.7841C14.8913 10.7888 14.9782 10.6971 14.9782 10.5839V9.35605C14.9782 9.24294 14.8913 9.15124 14.7841 9.15124Z" stroke="var(--stroke-0, #31576F)" stroke-width="0.5" stroke-linecap="round" stroke-linejoin="round"/>
<path id="Vector_11" d="M13.4767 9.19065L8.80624 12.9697L4.13627 9.19065C4.01801 9.09518 3.92221 8.9722 3.85633 8.8313C3.79045 8.69039 3.75625 8.53534 3.7564 8.37822V1.06876C3.7564 0.616324 4.10354 0.25 4.53227 0.25H13.0802C13.5089 0.25 13.8561 0.616811 13.8561 1.06876V8.37822C13.8561 8.69638 13.7164 8.99654 13.4767 9.19065Z" stroke="var(--stroke-0, #31576F)" stroke-width="0.5" stroke-linecap="round" stroke-linejoin="round"/>
</g>
</svg>
